<?xml version="1.0" encoding="UTF-8"?>
<!DOCTYPE svg PUBLIC "-//W3C//DTD SVG 1.1//EN" "http://www.w3.org/Graphics/SVG/1.1/DTD/svg11.dtd">
<!-- Creator: CorelDRAW 2021 (64-Bit) -->
<svg xmlns="http://www.w3.org/2000/svg" xml:space="preserve" width="200px" height="70px" version="1.1" style="shape-rendering:geometricPrecision; text-rendering:geometricPrecision; image-rendering:optimizeQuality; fill-rule:evenodd; clip-rule:evenodd"
viewBox="0 0 76.03 26.45"
 xmlns:xlink="http://www.w3.org/1999/xlink"
 xmlns:xodm="http://www.corel.com/coreldraw/odm/2003">
 <defs>
  <style type="text/css">
   <![CDATA[
    .fil0 {fill:#6982A7}
    .fil1 {fill:#025889}
    .fil3 {fill:#163A5B}
    .fil4 {fill:#01539D}
    .fil2 {fill:white}
    .fil5 {fill:#025889;fill-rule:nonzero}
   ]]>
  </style>
 </defs>
 <g id="Layer_x0020_1">
  <metadata id="CorelCorpID_0Corel-Layer"/>
  <path class="fil0" d="M53.69 2.3l1.77 0c1.48,0 2.7,1.22 2.7,2.7l0 2.89 0 0c0,0.43 -0.35,0.78 -0.78,0.78 -0.42,0 -0.76,-0.33 -0.78,-0.75l0 -2.53c0,-0.85 -0.69,-1.54 -1.53,-1.54l-0.99 0c-0.85,0 -1.54,0.69 -1.54,1.54l0 5.69c0,0.85 0.69,1.54 1.54,1.54l0.89 0 0 0c0.43,0 0.77,0.35 0.77,0.78 0,0.4 -0.3,0.73 -0.69,0.77l-1.36 0c-1.49,0 -2.71,-1.21 -2.71,-2.7l0 -6.47c0,-1.48 1.22,-2.7 2.71,-2.7zm17.86 0l1.77 0c1.49,0 2.71,1.22 2.71,2.7l0 2.89 -0.01 0c0,0.43 -0.35,0.78 -0.77,0.78 -0.43,0 -0.77,-0.33 -0.78,-0.75l0 -2.53c0,-0.85 -0.69,-1.54 -1.54,-1.54l-0.99 0c-0.84,0 -1.53,0.69 -1.53,1.54l0 5.69c0,0.85 0.69,1.54 1.53,1.54l0.89 0 0 0c0.43,0 0.78,0.35 0.78,0.78 0,0.4 -0.31,0.73 -0.7,0.77l-1.36 0c-1.48,0 -2.7,-1.21 -2.7,-2.7l0 -6.47c0,-1.48 1.22,-2.7 2.7,-2.7zm-8.93 -0.01l1.77 0c1.49,0 2.7,1.22 2.7,2.71l0 13.19 0 0c0,0.43 -0.35,0.78 -0.78,0.78 -0.42,0 -0.76,-0.34 -0.77,-0.75l0 -12.84c0,-0.84 -0.7,-1.53 -1.54,-1.53l-0.99 0c-0.84,0 -1.54,0.69 -1.54,1.53l0 13.27c0,0.85 0.7,1.54 1.54,1.54l2.38 0 0 0c0.43,0 0.77,0.36 0.77,0.78 0,0.42 -0.3,0.74 -0.69,0.77l-2.85 0c-1.48,0 -2.7,-1.21 -2.7,-2.7l0 -14.04c0,-1.49 1.21,-2.71 2.7,-2.71zm-7.16 19.45l-1.77 0c-1.49,0 -2.71,-1.21 -2.71,-2.7l0 -2.89 0.01 0c0,-0.43 0.35,-0.78 0.77,-0.78 0.43,0 0.77,0.34 0.78,0.75l0 2.53c0,0.85 0.69,1.54 1.54,1.54l0.99 0c0.84,0 1.53,-0.69 1.53,-1.54l0 -5.69c0,-0.85 -0.69,-1.54 -1.53,-1.54l-0.89 0 0 0c-0.43,0 -0.78,-0.35 -0.78,-0.78 0,-0.4 0.31,-0.73 0.7,-0.77l1.36 0c1.48,0 2.7,1.22 2.7,2.71l0 6.46c0,1.49 -1.22,2.7 -2.7,2.7zm17.86 0l-1.77 0c-1.48,0 -2.7,-1.21 -2.7,-2.7l0 -2.89 0 0c0,-0.43 0.35,-0.78 0.78,-0.78 0.42,0 0.76,0.34 0.78,0.75l0 2.53c0,0.85 0.69,1.54 1.53,1.54l0.99 0c0.85,0 1.54,-0.69 1.54,-1.54l0 -5.69c0,-0.85 -0.69,-1.54 -1.54,-1.54l-0.89 0 0 0c-0.43,0 -0.77,-0.35 -0.77,-0.78 0,-0.4 0.3,-0.73 0.69,-0.77l1.36 0c1.49,0 2.71,1.22 2.71,2.71l0 6.46c0,1.49 -1.22,2.7 -2.71,2.7z"/>
  <path class="fil1" d="M55.6 13.85c-0.12,0.18 -0.32,0.3 -0.55,0.32l-1.36 0c-0.4,0 -0.78,-0.08 -1.12,-0.24 0.06,-0.01 0.11,-0.02 0.15,-0.02 0.9,-0.07 1.91,-0.13 2.88,-0.06zm1 0.13c0.47,0.09 0.92,0.22 1.33,0.41l0.23 0.11 0 4.54c0,1.49 -1.22,2.7 -2.7,2.7l-1.77 0c-1.49,0 -2.71,-1.21 -2.71,-2.7l0 -2.89 0.01 0c0,-0.43 0.35,-0.78 0.77,-0.78 0.43,0 0.77,0.34 0.78,0.75l0 2.53c0,0.85 0.69,1.54 1.54,1.54l0.99 0c0.84,0 1.53,-0.69 1.53,-1.54l0 -4.67zm3.32 1.28c0.46,0.14 0.89,0.18 1.55,0.18l0 3.21c0,0.85 0.7,1.54 1.54,1.54l2.38 0 0 0c0.43,0 0.77,0.36 0.77,0.78 0,0.42 -0.3,0.74 -0.69,0.77l-2.85 0c-1.48,0 -2.7,-1.21 -2.7,-2.7l0 -3.78zm5.62 -0.28c0.51,-0.13 1.04,-0.28 1.55,-0.44l0 3.65 0 0c0,0.43 -0.35,0.78 -0.78,0.78 -0.42,0 -0.76,-0.34 -0.77,-0.75l0 -3.24zm4.41 -1.34c0.13,-0.04 0.26,-0.08 0.39,-0.12 0.66,-0.19 2,-0.32 3.25,-0.28 0.01,0.05 0.02,0.1 0.02,0.16 0,0.4 -0.31,0.73 -0.7,0.77l-1.36 0c-0.6,0 -1.15,-0.19 -1.6,-0.53zm4.52 -0.34c0.64,0.08 1.2,0.21 1.56,0.44l0 5.3c0,1.49 -1.22,2.7 -2.71,2.7l-1.77 0c-1.48,0 -2.7,-1.21 -2.7,-2.7l0 -2.89 0 0c0,-0.43 0.35,-0.78 0.78,-0.78 0.42,0 0.76,0.34 0.78,0.75l0 2.53c0,0.85 0.69,1.54 1.53,1.54l0.99 0c0.85,0 1.54,-0.69 1.54,-1.54l0 -5.35z"/>
  <path class="fil2" d="M14.17 17.03l-0.04 -0.07 -0.01 -0.03 -0.04 -0.07 -0.05 -0.12 -0.07 -0.14 0.01 0.01 -0.02 0.04c-0.05,0.11 -0.12,0.23 -0.18,0.34l-0.09 -0.01c0.07,-0.12 0.14,-0.24 0.2,-0.37l-0.04 -0.09 -0.05 -0.12 0 -0.01 -0.06 -0.13 -0.01 -0.03c-0.21,-0.54 -0.38,-1.1 -0.52,-1.68l0 0c-0.01,-0.05 -0.02,-0.09 -0.03,-0.14l-0.01 -0.02 -0.03 -0.15 -0.03 -0.15 -0.03 -0.16 -0.03 -0.15 0 -0.01 -0.03 -0.16 -0.02 -0.14 0 0 0 0 0 -0.02 -0.01 -0.04 0 0 0 -0.05 -0.01 0 0 -0.02 0 -0.01 0 -0.03 -0.01 -0.02 0 0 0 -0.02 0 -0.01 -0.01 -0.06 0 0 -0.01 -0.07 -0.01 -0.09 -0.01 -0.12 -0.01 -0.02 -0.01 -0.1 -0.02 -0.17 -0.01 -0.18 -0.02 -0.17 0 -0.01 -0.01 -0.16 -0.01 -0.18 -0.02 -0.36 0 0c-0.01,-0.32 -0.02,-0.64 -0.02,-0.96 0,-2.33 0.46,-4.62 1.75,-6.51l0 -0.01 0.08 0 0 0.04 0.03 -0.05 0.1 0c-1.2,1.7 -1.81,3.88 -1.81,6.53 0,0.41 0.02,0.8 0.04,1.18l-0.01 0 0.01 0.13 0.01 0.18 0 0 0.02 0.16 0 0.01 0.01 0.14 0 0.03 0.02 0.17 0.01 0.11 0 0.01 0.01 0.05 0.01 0.08 0 0.02 0 0.02 0.01 0.11 0 0.01 0.02 0.09 0 0.06 0 0 0 0.01 0.01 0 0 0.01 0 0 0 0.01 0 0 0 0 0 0.01 0 0 0 0.01 0 0 0 0.01 0 0 0 0.01 0 0 0 0.01 0 0 0.01 0 0 0.01 0 0 0 0.01 0 0 0 0 0 0.01 0 0.01 0 0 0 0.01 0 0 0 0 0 0.01 0 0 0 0.01 0 0 0.01 0.01 0 0 0 0.01 0 0 0 0.01 0 0 0 0 0 0.01 0 0 0 0.01 0 0 0 0.01 0 0 0 0.01 0 0 0.01 0 0 0.01 0 0 0 0.01 0 0 0 0.01 0 0 0 0.01 0 0 0 0.01 0 0 0 0.01 0 0 0.01 0.01 0 0 0.02 0.14 0 0.01 0.02 0.14 0 0 0.02 0.08 0.01 0.06 0 0.02 0.03 0.16 0.02 0.08 0.01 0.06 0 0.01 0.01 0.03 0.02 0.12 0.01 0 0 0.02c0.01,0.04 0.02,0.09 0.03,0.13l0 0 0 0.01c0.14,0.59 0.31,1.14 0.52,1.66l0 0.02 0.03 0.07 0.02 0.03 0.01 0.03 0 0 0.02 0.05 0.02 0.05 0.01 0.02 0 0.01 0.03 0.05 0.03 0.06 0 0.01 0.02 0.05 0.02 0.05 0.02 0.03 0.01 0.02 0.04 0.09 0.01 0.01 0.03 0.07 0.01 0.02 0 0 0.04 0.08 0.01 0.01 0.01 0.02 -0.09 0zm19.48 -14.26l0.16 -0.02 0.16 0.14c1.84,2.1 2.25,5.27 2.25,7.95 0,0.84 -0.04,1.67 -0.15,2.49l0 0.01 -0.01 0.02c-0.01,0.08 -0.02,0.17 -0.03,0.26l-0.03 0.15 -0.02 0.14 -0.03 0.15 -0.02 0.1 -0.03 0.16 -0.04 0.16 -0.03 0.16 -0.04 0.15 -0.04 0.16 -0.04 0.15 -0.03 0.13 -0.05 0.17 -0.03 0.09 -0.01 0.01 -0.02 0.09 -0.04 0.1 -0.05 0.16 -0.05 0.13 -0.05 0.14 -0.06 0.14 -0.05 0.14c-0.02,0.03 -0.03,0.07 -0.05,0.1l-0.01 0.04 -0.06 0.12c-0.01,0.04 -0.03,0.08 -0.05,0.12l-0.01 0.02c-0.33,0.71 -0.75,1.36 -1.26,1.93l-0.19 -0.01c0.52,-0.58 0.96,-1.24 1.31,-1.99l0 0 0.01 -0.01c0.02,-0.04 0.03,-0.08 0.05,-0.12l0 0 0.01 -0.02 0.05 -0.1 0 -0.02 0.01 -0.01 0 -0.01c0.02,-0.03 0.03,-0.07 0.05,-0.11l0 0 0 -0.01 0.02 -0.03 0.02 -0.07 0.01 -0.02 0 0 0.06 -0.14 0.05 -0.14 0 0 0.04 -0.12 0.01 -0.02 0.01 -0.02 0.04 -0.12 0.02 -0.08 0.01 -0.02 0 -0.01 0.03 -0.08 0 -0.01 0.03 -0.09 0.04 -0.14 0.01 -0.02 0.03 -0.13 0 0 0.04 -0.15 0.04 -0.15 0.01 -0.03 0.03 -0.11 0 -0.02 0 -0.01 0.03 -0.12 0 -0.02 0.03 -0.12 0 0 0.01 -0.04 0 0 0.03 -0.14 0 -0.02 0.02 -0.1 0 -0.04 0.01 -0.02 0.02 -0.09 0 -0.01 0.01 -0.08 0 -0.02 0.01 -0.01 0 -0.02 0 -0.03 0.01 -0.05 0 -0.01 0.01 -0.05 0 0c0.02,-0.09 0.03,-0.18 0.04,-0.27l0 -0.01 0 0c0.11,-0.77 0.16,-1.6 0.16,-2.48 0,-3.64 -0.78,-6.31 -2.34,-7.99 -0.03,-0.03 -0.06,-0.06 -0.08,-0.08zm0.26 15.76c0.44,-0.54 0.81,-1.13 1.11,-1.76l0.01 -0.02c0.02,-0.04 0.03,-0.08 0.05,-0.12 -0.02,0.04 -0.03,0.08 -0.05,0.12l-0.01 0.02c-0.3,0.64 -0.67,1.22 -1.11,1.76zm1.18 -1.93l0.05 -0.09 -0.05 0.09zm0.07 -0.14c0.01,-0.03 0.02,-0.06 0.04,-0.09l0 0c-0.02,0.03 -0.03,0.06 -0.04,0.09zm0.34 -0.92l0.02 -0.06 0.01 -0.02 0.02 -0.08 -0.02 0.08 -0.01 0.02 -0.02 0.06zm0.24 -0.87l0.01 -0.05 -0.01 0.05zm0.16 -0.75l0 -0.03 0 0.03zm0.04 -0.25l0.01 -0.06c0.01,-0.09 0.02,-0.18 0.04,-0.27l0 -0.01 0 -0.01c0,0.01 0,0.01 0,0.01l0 0.01c-0.02,0.09 -0.03,0.18 -0.04,0.27l-0.01 0.06zm-23.01 -1.42l-0.03 -0.33 0.03 0.33zm0 0l0 0.01 0 -0.01zm0.03 0.36l0.02 0.17 0.01 0.1 -0.01 -0.1 -0.02 -0.17zm0.06 0.52l-0.02 -0.15 0.02 0.15zm0.01 0.05l-0.01 -0.05 0.01 0.05zm0 0l0 0.01 0.01 0.05 0 0.01 0 0.02 0 0 0 -0.02 0 -0.01 -0.01 -0.03 0 -0.03zm0.06 0.44l0.03 0.14 0 0 0 0 -0.03 -0.14zm0.15 0.77l0 0c0.01,0.03 0.02,0.06 0.02,0.1 0,-0.03 -0.01,-0.07 -0.02,-0.1l0 0zm0.03 0.14l0.01 0.01c0.13,0.56 0.3,1.11 0.51,1.65 -0.21,-0.54 -0.38,-1.09 -0.52,-1.65l0 -0.01zm0.54 1.72l0.05 0.11 -0.05 -0.11zm-0.92 -4.65l0 0.07 0 0c0,-0.03 0,-0.05 0,-0.07z"/>
  <g id="_2655813258272">
   <path class="fil3" d="M50.07 15.15c0,1.33 -0.47,2.46 -1.41,3.38 -0.94,0.93 -2.08,1.39 -3.41,1.39l-11.44 0 0 -1.16c0.52,-0.58 0.94,-1.24 1.28,-1.96l0.01 -0.02c0.02,-0.04 0.04,-0.08 0.05,-0.12l0.06 -0.12 0.01 -0.04c0.02,-0.03 0.03,-0.07 0.05,-0.1l0.05 -0.14 0.06 -0.14 0.05 -0.14 0.05 -0.13 0.05 -0.16 0.04 -0.1 0.02 -0.09 0.01 -0.01 0.03 -0.09 0.05 -0.17 0.03 -0.13 0.04 -0.15 0.04 -0.16 0.04 -0.15 0.03 -0.16 0.04 -0.16 0.03 -0.16 0.02 -0.1 0.03 -0.15 0.02 -0.14 0.03 -0.15c0.01,-0.09 0.02,-0.18 0.03,-0.26l0.01 -0.02 0 -0.01c0.11,-0.82 0.15,-1.65 0.15,-2.49 0,-2.74 -0.43,-6 -2.38,-8.09l-0.03 -0.04 0 -0.41 10.99 0c1.29,0 2.42,0.38 3.36,1.13 0.95,0.76 1.5,1.75 1.63,2.98 0.02,0.1 0.03,0.2 0.03,0.3 0,0.1 0,0.2 0,0.3 0,0.94 -0.23,1.77 -0.68,2.49 -0.46,0.71 -1.14,1.27 -2.05,1.67 0.93,0.34 1.65,0.85 2.18,1.54 0.53,0.69 0.8,1.5 0.8,2.44zm-4.79 -7.31c0,-0.6 -0.19,-1.12 -0.57,-1.56 -0.38,-0.44 -0.86,-0.65 -1.45,-0.65l-5.57 0 0 4.21 5.8 0.02c0.52,0 0.95,-0.2 1.28,-0.59 0.34,-0.4 0.51,-0.87 0.51,-1.43zm0.23 7.14c0,-0.59 -0.19,-1.1 -0.56,-1.53 -0.37,-0.43 -0.84,-0.64 -1.41,-0.64l-5.95 0 0 4.11 6.08 0c0.53,0 0.97,-0.19 1.32,-0.57 0.34,-0.38 0.52,-0.83 0.52,-1.37z"/>
   <path class="fil3" d="M13.88 16.61c-0.61,1.25 -1.61,2.13 -3.02,2.65 -1.16,0.44 -2.66,0.66 -4.51,0.66l-6.35 0 0 -2.87 5.65 0c0.87,0 1.53,-0.07 1.99,-0.21 0.62,-0.18 1.14,-0.54 1.56,-1.08 0.3,-0.37 0.51,-0.74 0.63,-1.12 0.12,-0.38 0.18,-0.82 0.18,-1.32l0 -11.02 4.53 0 0 1.79c-1.29,1.89 -1.75,4.18 -1.75,6.51 0,0.32 0.01,0.64 0.02,0.96l0 0 0.02 0.36 0.01 0.18 0.01 0.16 0 0.01 0.02 0.17 0.01 0.18 0.02 0.17 0.01 0.1 0.01 0.02 0.01 0.12 0.01 0.09 0.01 0.07 0 0 0.01 0.06 0 0.01 0 0.02 0 0 0.01 0.02 0 0.03 0 0.01 0 0.02 0.01 0 0 0.05 0 0 0.01 0.04 0 0.02 0 0 0 0 0.02 0.14 0.03 0.16 0 0.01 0.03 0.15 0.03 0.16 0.03 0.15 0.03 0.15 0.01 0.02c0.01,0.05 0.02,0.09 0.03,0.14l0 0c0.14,0.58 0.31,1.14 0.52,1.68l0.01 0.03 0.06 0.13 0 0.01 0.05 0.12 0.04 0.09z"/>
   <path class="fil3" d="M36.07 10.84c0,0.88 -0.05,1.71 -0.16,2.48l0 0 0 0.01c-0.01,0.09 -0.02,0.18 -0.04,0.27l0 0 -0.01 0.05 0 0.01 -0.01 0.05 0 0.03 0 0.02 -0.01 0.01 0 0.02 -0.01 0.08 0 0.01 -0.02 0.09 -0.01 0.02 0 0.04 -0.02 0.1 0 0.02 -0.03 0.14 0 0 -0.01 0.04 0 0 -0.03 0.12 0 0.02 -0.03 0.12 0 0.01 0 0.02 -0.03 0.11 -0.01 0.03 -0.04 0.15 -0.04 0.15 0 0 -0.03 0.13 -0.01 0.02 -0.04 0.14 -0.03 0.09 0 0.01 -0.03 0.08 0 0.01 -0.01 0.02 -0.02 0.08 -0.04 0.12 -0.01 0.02 -0.01 0.02 -0.04 0.12 0 0 -0.05 0.14 -0.06 0.14 0 0 -0.01 0.02 -0.02 0.07 -0.02 0.03 0 0.01 0 0c-0.02,0.04 -0.03,0.08 -0.05,0.11l0 0.01 -0.01 0.01 0 0.02 -0.05 0.1 -0.01 0.02 0 0c-0.02,0.04 -0.03,0.08 -0.05,0.12l-0.01 0.01 0 0c-0.55,1.17 -1.31,2.13 -2.27,2.88 -0.09,0.07 -0.18,0.14 -0.27,0.2 -2.97,2.24 -3.86,1.87 -7.63,5.67 -0.39,0.35 -0.51,0.57 -0.98,0.97l-0.98 -0.97c-2.43,-2.42 -4.36,-4.03 -6.79,-6.17l-0.1 -0.08 -0.09 -0.09 -0.09 -0.09 -0.09 -0.09 -0.02 -0.01 -0.05 -0.06 -0.02 -0.02 -0.09 -0.09 -0.01 -0.01 -0.06 -0.07 -0.01 -0.02 -0.09 -0.09 -0.08 -0.1 0 0 -0.08 -0.09 0 -0.01 -0.08 -0.1 -0.06 -0.08 0 0 0 0 -0.06 -0.07 0 0 -0.02 -0.03 -0.02 -0.03 -0.02 -0.03 -0.04 -0.05 -0.02 -0.02 -0.03 -0.05 -0.01 -0.01 -0.01 -0.01 -0.04 -0.07 -0.01 -0.01 -0.04 -0.07 -0.07 -0.11 -0.07 -0.11 -0.01 -0.01 -0.06 -0.1 0 -0.01 -0.07 -0.11 -0.07 -0.12 -0.04 -0.08 -0.01 -0.02 -0.04 -0.08 -0.01 -0.01 -0.04 -0.08 0 0 -0.01 -0.02 -0.03 -0.07 -0.01 -0.01 -0.04 -0.09 -0.01 -0.02 -0.02 -0.03 -0.02 -0.05 -0.02 -0.05 0 -0.01 -0.03 -0.06 -0.03 -0.05 0 -0.01 -0.01 -0.02 -0.02 -0.05 -0.02 -0.05 0 0 -0.01 -0.03 -0.02 -0.03 -0.03 -0.07 0 -0.02c-0.21,-0.52 -0.38,-1.07 -0.52,-1.66l0 -0.01 0 0c-0.01,-0.04 -0.02,-0.09 -0.03,-0.13l0 -0.02 -0.01 0 -0.02 -0.12 -0.01 -0.03 0 -0.01 -0.01 -0.06 -0.02 -0.08 -0.03 -0.16 0 -0.02 -0.01 -0.06 -0.02 -0.08 0 0 -0.02 -0.14 0 -0.01 -0.02 -0.14 0 0 -0.01 -0.01 0 0 0 -0.01 0 0 0 -0.01 0 0 0 -0.01 0 0 0 -0.01 0 0 0 -0.01 0 0 0 -0.01 -0.01 0 0 0 0 -0.01 0 0 0 -0.01 0 0 0 -0.01 0 0 0 -0.01 0 0 0 0 0 -0.01 0 0 0 -0.01 0 0 -0.01 -0.01 0 0 0 -0.01 0 0 0 -0.01 0 0 0 0 0 -0.01 0 0 0 -0.01 0 -0.01 0 0 0 0 0 -0.01 0 0 0 -0.01 -0.01 0 0 0 0 -0.01 0 0 0 -0.01 0 0 0 -0.01 0 0 0 -0.01 0 0 0 -0.01 0 0 0 0 0 -0.01 0 0 0 -0.01 -0.01 0 0 -0.01 0 0 0 -0.06 -0.02 -0.09 0 -0.01 -0.01 -0.11 0 -0.02 0 -0.02 -0.01 -0.08 -0.01 -0.05 0 -0.01 -0.01 -0.11 -0.02 -0.17 0 -0.03 -0.01 -0.14 0 -0.01 -0.02 -0.16 0 0 -0.01 -0.18 -0.01 -0.13 0.01 0c-0.02,-0.38 -0.04,-0.77 -0.04,-1.18 0,-3.26 0.91,-5.81 2.73,-7.63 1.98,-1.98 4.94,-2.97 8.88,-2.97 4.34,0 7.4,0.95 9.18,2.85 1.56,1.68 2.34,4.35 2.34,7.99zm-11.69 7.93l0 0c0.05,0 0.09,0 0.13,0 3.92,0 7.11,-3.1 7.26,-6.99l0 0 0 -0.01 0 0 0 0 0 -0.01 0 0 0.01 -0.01 0 0 0 -0.01 0 0 0 -0.01 0 0 0 -0.01 0 -0.06 0 0 0 -0.01 0 0c0,-0.05 0,-0.1 0,-0.15 0,-4.02 -3.26,-7.28 -7.27,-7.28 -4.02,0 -7.28,3.26 -7.28,7.28 0,0.06 0.01,0.12 0.01,0.18l0 0c0,0.06 0,0.13 0,0.19l0 0c0.01,0.03 0.01,0.05 0.01,0.08 0,0.04 0,0.07 0.01,0.1l0 0.05c0,0.05 0.01,0.09 0.01,0.14l0.01 0.05c0,0.05 0.01,0.09 0.01,0.13 0,0.02 0.01,0.04 0.01,0.05 0.01,0.05 0.01,0.09 0.02,0.13 0,0.03 0.01,0.07 0.01,0.1 0.01,0.03 0.01,0.05 0.02,0.07 0,0.04 0.01,0.08 0.02,0.11 0,0.03 0.01,0.05 0.01,0.07 0.01,0.04 0.02,0.07 0.02,0.11 0.01,0.02 0.01,0.04 0.02,0.07 0.01,0.03 0.01,0.06 0.02,0.1 0.01,0.02 0.01,0.05 0.02,0.07 0.01,0.04 0.02,0.07 0.03,0.1 0,0.02 0.01,0.05 0.02,0.08 0.01,0.03 0.02,0.06 0.03,0.1 0,0.02 0.01,0.04 0.02,0.07 0.01,0.03 0.02,0.05 0.03,0.08 0,0.03 0.01,0.06 0.02,0.09 0.01,0.03 0.02,0.05 0.03,0.08 0.01,0.03 0.02,0.06 0.03,0.08 0.01,0.03 0.02,0.07 0.04,0.1l0.02 0.07c0.02,0.03 0.03,0.06 0.04,0.09l0.03 0.07c0.01,0.03 0.02,0.06 0.04,0.09 0.01,0.02 0.02,0.05 0.03,0.07 0.01,0.03 0.03,0.06 0.04,0.09 0.01,0.03 0.02,0.05 0.03,0.07 0.02,0.04 0.04,0.07 0.05,0.1l0.03 0.06c0.02,0.03 0.03,0.06 0.05,0.1l0.03 0.05c0.02,0.03 0.04,0.07 0.05,0.1l0.04 0.06c0.01,0.03 0.03,0.06 0.05,0.09l0.03 0.06c0.02,0.03 0.04,0.06 0.06,0.09l0.04 0.05c0.02,0.03 0.04,0.07 0.06,0.1l0.03 0.05c0.02,0.03 0.04,0.06 0.06,0.09l0.04 0.05c0.02,0.03 0.04,0.06 0.07,0.09l0.03 0.05c0.02,0.03 0.05,0.06 0.07,0.09l0.04 0.05c0.02,0.03 0.05,0.07 0.07,0.1l0.03 0.03c0.03,0.04 0.05,0.07 0.08,0.1l0.03 0.04c0.03,0.03 0.06,0.06 0.09,0.09l0.03 0.04c0.03,0.03 0.06,0.06 0.08,0.09l0.03 0.03c0.03,0.03 0.07,0.07 0.1,0.1l0.02 0.03c0.03,0.03 0.07,0.06 0.1,0.09l0.03 0.03c0.03,0.03 0.06,0.06 0.09,0.09l0.03 0.03c0.03,0.03 0.07,0.06 0.1,0.08l0.03 0.03c0.04,0.03 0.07,0.06 0.1,0.09l0.03 0.03c0.04,0.02 0.07,0.05 0.1,0.08l0.04 0.03c0.03,0.02 0.07,0.05 0.1,0.08l0.03 0.02c0.04,0.03 0.08,0.06 0.12,0.08l0.02 0.02c0.04,0.03 0.08,0.06 0.12,0.09l0.02 0.01c0.04,0.03 0.08,0.06 0.12,0.08l0.02 0.02c0.05,0.03 0.09,0.05 0.13,0.08l0.02 0.01c0.04,0.03 0.08,0.05 0.13,0.08l0.02 0.01c0.05,0.03 0.09,0.05 0.13,0.08l0.02 0c0.04,0.03 0.09,0.06 0.13,0.08l0.02 0.01c0.05,0.02 0.09,0.05 0.14,0.07l0.02 0.01c0.04,0.02 0.09,0.04 0.14,0.07l0.02 0c0.04,0.03 0.09,0.05 0.14,0.07l0.01 0.01c0.05,0.02 0.1,0.04 0.15,0.06l0.02 0c0.04,0.02 0.09,0.04 0.14,0.06l0.02 0.01c0.05,0.02 0.1,0.04 0.15,0.05l0.01 0.01c0.06,0.02 0.11,0.03 0.16,0.05l0.01 0c0.05,0.02 0.1,0.04 0.16,0.05l0.01 0.01c0.05,0.01 0.11,0.03 0.16,0.04l0.01 0c0.17,0.05 0.34,0.09 0.51,0.13l0.01 0c0.05,0.01 0.11,0.02 0.17,0.03l0 0c0.06,0.01 0.12,0.02 0.18,0.02l0.01 0.01c0.05,0 0.11,0.01 0.17,0.02l0.01 0c0.05,0.01 0.11,0.01 0.17,0.02l0.01 0c0.06,0 0.11,0.01 0.17,0.01l0.01 0c0.06,0.01 0.12,0.01 0.18,0.01l0 0c0.06,0 0.12,0.01 0.18,0.01l0 0z"/>
  </g>
  <g id="_2655813271184">
   <path class="fil4" d="M21.34 15.07c0.6,0.56 2.23,0.86 3.13,0.86 0.87,-0.01 1.71,-0.14 2.49,-0.48 0.23,-0.1 0.5,-0.29 0.67,-0.35 0,-0.39 -0.06,-4.6 -0.18,-4.82 -0.28,-0.47 -1.59,-0.71 -2.2,-0.72l0 0.28 -0.39 0.37 0.39 4 -0.77 0.75 -0.77 -0.75 0.39 -4 -0.39 -0.37 0 -0.28c-0.34,0.02 -0.69,0.07 -1.05,0.15 -1.34,0.3 -1.19,0.72 -1.21,1.46 -0.04,1.2 -0.12,2.77 -0.11,3.9z"/>
   <path class="fil4" d="M24.2 5.06c-1.02,0.15 -1.9,1.09 -1.72,2.31 0.16,1.03 1.12,1.87 2.3,1.69 1.02,-0.15 1.88,-1.09 1.7,-2.29 -0.14,-1.04 -1.1,-1.88 -2.28,-1.71z"/>
   <path class="fil0" d="M24.81 10.19l0.39 -0.38 0 -0.28 -1.43 0 0 0.28 0.39 0.38 -0.09 0.92 0.78 -0.45 -0.04 -0.47zm-0.78 1.27l-0.09 0.91 1.02 -0.59 -0.08 -0.81 -0.85 0.49zm-0.12 1.25l-0.14 1.48 0.71 0.69 0.72 -0.69 -0.21 -2.1 -1.08 0.62z"/>
  </g>
  <path class="fil5" d="M50.07 15.15c0,1.33 -0.47,2.46 -1.41,3.38 -0.94,0.93 -2.08,1.39 -3.41,1.39l-11.44 0 0 -1.16c0.52,-0.58 0.94,-1.24 1.28,-1.96l0.01 -0.02c0.02,-0.04 0.04,-0.08 0.05,-0.12l0.06 -0.12 0.01 -0.04c0.02,-0.03 0.03,-0.07 0.05,-0.1l0.05 -0.14 0.06 -0.14 0.05 -0.14 0.05 -0.13 0.05 -0.16 0.04 -0.1 0.02 -0.09 0.01 -0.01 0.03 -0.09 0.05 -0.17 0.03 -0.13 0.04 -0.15 0.04 -0.16 0.04 -0.15 0.03 -0.16 0.04 -0.16 0.03 -0.16 0.02 -0.1 0.03 -0.15 0.02 -0.14 0.03 -0.15c0.01,-0.09 0.02,-0.18 0.03,-0.26l0.01 -0.02 0 -0.01c0.03,-0.22 0.05,-0.44 0.07,-0.67 0.47,0.08 0.95,0.15 1.45,0.21l0 4.05 6.08 0c0.53,0 0.97,-0.19 1.32,-0.57 0.34,-0.38 0.52,-0.83 0.52,-1.37 0,-0.59 -0.19,-1.1 -0.56,-1.53l-0.02 -0.02 -0.01 -0.02 -0.02 -0.02 -0.01 0 -0.01 -0.01 -0.01 -0.01 -0.01 -0.01 -0.02 -0.02 0 0 -0.01 -0.02 0 0 -0.02 -0.01 0 -0.01 -0.01 -0.01 -0.01 -0.01 -0.01 0 -0.01 -0.01 -0.02 -0.02 -0.02 -0.02 0 0 -0.02 -0.01 0 0 -0.02 -0.02 -0.01 -0.01 -0.01 0 -0.01 -0.01 -0.01 -0.01 0 0 -0.01 -0.01 -0.01 -0.01 -0.01 -0.01 -0.03 -0.01 0 0 -0.01 -0.01 -0.01 -0.01 -0.01 -0.01 -0.01 0 -0.01 -0.01 -0.01 0 -0.02 -0.02 0 0 -0.02 -0.01 -0.02 -0.01 0 0 -0.02 -0.01 0 0 -0.02 -0.01 -0.02 -0.02 -0.01 0 -0.01 -0.01 -0.01 0 -0.02 -0.01 -0.02 -0.01 0 0 -0.02 -0.01 0 0 -0.02 -0.01 0 0 -0.02 -0.01 0 0 -0.02 0 -0.01 -0.01 -0.02 -0.01 -0.02 -0.01 -0.02 0 -0.01 0 -0.02 -0.01 0 0 -0.02 -0.01 -0.02 -0.01 -0.03 0 -0.02 -0.01 -0.02 -0.01 -0.01 0 -0.02 0 0 0 -0.02 -0.01 0 0 -0.03 0 -0.02 -0.01 -0.01 0 -0.02 0 0 -0.01 -0.02 0 -0.03 0 0 0 -0.02 -0.01 0 0 -0.02 0 -0.01 0 -0.01 0 -0.01 0 -0.01 -0.01 -0.02 0 0 0c1.25,-0.16 2.4,-0.42 4.21,-0.78l0.52 -0.11 0.02 0.01 0.01 0.02 0 0 0.01 0.01 0.02 0.01 0 0 0.04 0.03 0 0 0.01 0.01 0.01 0.01 0.01 0 0.01 0.01 0.01 0.01 0.01 0.01 0 0.01 0.02 0.01 0.01 0.01 0 0 0.01 0.01 0.01 0.01 0.01 0 0.02 0.02 0.01 0.01 0 0 0.03 0.03 0 0 0.05 0.04 0.01 0.02 0 0 0.01 0.01 0.02 0.01 0 0 0.01 0.01 0.01 0.01 0.01 0.01 0 0.01 0.03 0.02 0 0 0.01 0.01 0.01 0.01 0.01 0.01 0 0.01 0.01 0.01 0.01 0.01 0.01 0 0.01 0.01 0.01 0.02 0 0 0.01 0.01 0.01 0.01 0.01 0.01 0 0 0.02 0.02 0.01 0.01 0 0 0.01 0.01 0.01 0.01 0 0.01 0.01 0.01 0.01 0.01 0.01 0.01 0 0 0.01 0.02 0.02 0.01 0 0 0.01 0.01 0.01 0.02 0 0 0.01 0.01 0.01 0.01 0.01 0.01 0.01 0.02 0 0 0.01 0.01 0 0.01 0.01 0.01 0.01 0.01 0.01 0.01 0 0 0.01 0.02 0.01 0.01c0.53,0.69 0.8,1.5 0.8,2.44z"/>
  <path class="fil1" d="M13.88 16.61c-0.61,1.25 -1.61,2.13 -3.02,2.65 -1.16,0.44 -2.66,0.66 -4.51,0.66l-6.35 0 0 -2.88 5.65 0c0.87,0 1.53,-0.06 1.99,-0.2 0.62,-0.18 1.14,-0.54 1.56,-1.08 0.3,-0.37 0.51,-0.74 0.63,-1.12 0.12,-0.38 0.18,-0.82 0.18,-1.32l0 -2.49c0.93,0.25 1.87,0.55 2.8,0.85l0.02 0.24 0.01 0.18 0.01 0.16 0 0.01 0.02 0.17 0.01 0.18 0.02 0.17 0.01 0.1 0.01 0.02 0.01 0.12 0.01 0.09 0.01 0.07 0 0 0.01 0.06 0 0.01 0 0.02 0 0 0.01 0.02 0 0.03 0 0.01 0 0.02 0.01 0 0 0.05 0 0 0.01 0.04 0 0.02 0 0 0 0 0.02 0.14 0.03 0.16 0 0.01 0.03 0.15 0.03 0.16 0.03 0.15 0.03 0.15 0.01 0.02c0.01,0.05 0.02,0.09 0.03,0.14l0 0c0.14,0.58 0.31,1.14 0.52,1.68l0.01 0.03 0.06 0.13 0 0.01 0.05 0.12 0.04 0.09z"/>
  <path class="fil5" d="M35.99 12.64l0 0.03 -0.02 0.18 -0.02 0.17 -0.02 0.17 -0.02 0.17 0 0 -0.02 0.14 -0.02 0.11 -0.01 0.03 0 0.05 -0.02 0.09 0 0.02 0 0.01 -0.02 0.09 0 0.02 -0.02 0.09 -0.03 0.16 0 0.02 -0.03 0.14 0 0 -0.04 0.16 0 0.02 -0.03 0.12 0 0.01 0 0.02 -0.03 0.11 -0.01 0.03 -0.04 0.15 -0.04 0.15 0 0 -0.04 0.13 0 0.02 -0.04 0.14 -0.03 0.09 -0.01 0.01 -0.02 0.08 0 0.01 -0.01 0.02 -0.03 0.08 -0.04 0.12 -0.01 0.02 0 0.02 -0.04 0.12 -0.01 0 -0.05 0.14 -0.05 0.13 0 0.01 -0.05 0.12 -0.01 0.01 0 0 -0.05 0.12 0 0.01 -0.06 0.13 -0.01 0.01 -0.05 0.11 0 0.01 -0.07 0.13 -0.06 0.13 -0.01 0.02 -0.05 0.08 0 0.02 -0.01 0.01 -0.05 0.08 -0.01 0.03 -0.01 0.02 -0.06 0.1 0 0 -0.07 0.12 -0.07 0.12 -0.04 0.06 -0.01 0.02 -0.05 0.07 0 0.01 -0.05 0.07 -0.08 0.11 -0.08 0.11 -0.08 0.11 -0.02 0.03 -0.05 0.06 -0.01 0.02 -0.08 0.1 -0.01 0.02 -0.06 0.07 -0.02 0.02 -0.01 0.01 -0.07 0.09 0 0 -0.09 0.1 -0.08 0.08 -0.05 0.06 -0.01 0.01 -0.05 0.05 -0.01 0.01 0 0 0 0 -0.01 0.01 0 0 0 0 0 0 -0.01 0.01 0 0 0 0 0 0 -0.01 0.01 0 0 0 0 0 0 -0.01 0.01 0 0 0 0.01 -0.01 0 0 0 0 0 0 0.01 -0.01 0 0 0 0 0 0 0.01 -0.01 0 0 0 0 0 0 0.01 -0.01 0 0 0 0 0 0 0 0 0.01 -0.01 0 0 0 0 0 0 0.01 -0.01 0 0 0 0 0 -0.01 0.01 0 0 0 0 0 0 -0.01 0.01 0 0 0 0 0 0 -0.01 0.01 0 0 0 0 0 0 -0.01 0.01 0 0 0 0 0 0 -0.01 0.01 0 0 0 0 0 0 -0.01 0.01 0 0 0 0 -0.01 0.01 -0.01 0.01 -0.08 0.08 -0.01 0.01 0 0 0 0 -0.01 0 0 0.01 0 0 -0.01 0 0 0 0 0.01 -0.02 0.01 0 0 -0.02 0.02 0 0 0 0 -0.01 0.01 -0.01 0.01 0 0 0 0 0 0 -0.01 0.01 0 0 0 0 -0.01 0 0 0.01 0 0 0 0 -0.01 0 0 0 0 0.01 -0.01 0 0 0 0 0.01 0 0 -0.01 0 0 0 0 0.01 -0.01 0 0 0 0 0 -0.01 0.01 0 0 0 0 0 0 -0.01 0.01 0 0 0 0 -0.01 0.01 0 0 0 0 -0.01 0 0 0.01 0 0 0 0 -0.01 0 0 0.01 0 0 -0.01 0.01 -0.01 0 0 0 0 0.01 0 0 -0.01 0 0 0 -0.01 0.01 0 0 -0.06 0.05 -0.01 0.01 0 0 0 0 0 0 0 0 -0.06 0.05 -0.01 0.01 -0.01 0.01 0 0 0 0 -0.01 0 -0.01 0.02 -0.11 0.08c-3.22,2.49 -4.04,1.96 -7.95,5.87 -0.39,0.35 -0.51,0.57 -0.98,0.97l-0.98 -0.98c-2.42,-2.42 -4.34,-4.05 -6.77,-6.19l-0.09 -0.08 -0.09 -0.09 -0.1 -0.09 -0.09 -0.09 -0.01 -0.01 -0.06 -0.06 -0.02 -0.02 -0.08 -0.09 -0.01 -0.02 -0.06 -0.06 -0.02 -0.02 -0.08 -0.1 -0.09 -0.09 0 -0.01 -0.07 -0.09 -0.01 0 -0.08 -0.1 -0.05 -0.08 -0.01 0 0 0 -0.05 -0.08 0 0 -0.02 -0.02 -0.02 -0.03 -0.02 -0.03 -0.04 -0.06 -0.02 -0.02 -0.03 -0.04 -0.01 -0.01 -0.01 -0.02 -0.04 -0.06 -0.01 -0.01 -0.04 -0.07 -0.08 -0.12 -0.06 -0.11 -0.01 0 -0.06 -0.11 0 0 -0.07 -0.12 -0.06 -0.11 -0.05 -0.08 -0.01 -0.02 -0.04 -0.08 0 -0.02 -0.05 -0.08 0 0 -0.01 -0.02 -0.03 -0.07 0 0 -0.05 -0.1 -0.01 -0.02 -0.06 -0.12 -0.05 -0.13 -0.01 -0.01 -0.05 -0.12 0 0 -0.05 -0.13 -0.05 -0.13 -0.05 -0.13 -0.01 -0.02 -0.03 -0.1 -0.01 -0.02 -0.05 -0.14 -0.04 -0.13 -0.01 -0.01 -0.03 -0.11 -0.01 -0.02 -0.04 -0.14 -0.04 -0.15 0 0 -0.04 -0.13 0 -0.01 -0.04 -0.15 -0.03 -0.15 -0.04 -0.14 -0.03 -0.16 -0.04 -0.15 -0.01 -0.05 -0.02 -0.1 -0.03 -0.16 -0.02 -0.15 0 -0.01 -0.03 -0.14 0 -0.01 -0.02 -0.14 0 0 0 -0.01 0 0 0 -0.01 0 0 0 -0.01 -0.01 0 0 -0.01 0 0 0 -0.01 0 0 0 -0.01 0 0 0 0 0 -0.01 0 0 0 -0.01 0 0 0 -0.01 0 0 0 -0.01 -0.01 0 0 -0.01 0 0 0 0 0 -0.01 0 0 0 -0.01 0 0 0 -0.01 0 0 0 -0.01 0 0 0 -0.01 0 0 0 0 0 -0.01 -0.01 0 0 -0.01 0 -0.01 0 0 0 0 0 -0.01 0 0 0 0 0 -0.01 0 0 0 -0.01 0 0 0 -0.01 0 0 0 -0.01 0 0 -0.01 -0.01 0 0 0 -0.01 0 0 0 0 0 -0.01 0 0 0 -0.01 0 0 0 -0.01 0 0 -0.01 -0.06 -0.01 -0.09 0 -0.01 -0.01 -0.11 -0.01 -0.02 0 -0.02 -0.01 -0.08 0 -0.05 0 -0.01 -0.01 -0.11 -0.02 -0.17 0 -0.03 -0.01 -0.14 -0.01 -0.01 -0.01 -0.16 0 0 -0.01 -0.18 -0.01 -0.13c1.25,0.4 3.04,0.84 4.39,1.13l0.01 0.02c0,0.02 0.01,0.04 0.01,0.07 0.01,0.03 0.02,0.07 0.02,0.1 0.01,0.02 0.01,0.05 0.02,0.07 0.01,0.03 0.01,0.07 0.02,0.1 0.01,0.02 0.01,0.05 0.02,0.08 0.01,0.03 0.02,0.06 0.03,0.09 0,0.03 0.01,0.05 0.02,0.08 0.01,0.03 0.02,0.07 0.03,0.1 0,0.02 0.01,0.05 0.02,0.07 0.01,0.03 0.02,0.06 0.03,0.09 0.01,0.03 0.01,0.05 0.02,0.08 0.01,0.03 0.02,0.06 0.03,0.08 0.01,0.03 0.02,0.06 0.03,0.09 0.01,0.03 0.02,0.06 0.04,0.09l0.02 0.07c0.02,0.03 0.03,0.06 0.04,0.09l0.03 0.08c0.01,0.02 0.03,0.05 0.04,0.08 0.01,0.03 0.02,0.05 0.03,0.08 0.01,0.03 0.03,0.06 0.04,0.09 0.01,0.02 0.02,0.04 0.03,0.06 0.02,0.04 0.04,0.07 0.05,0.11l0.03 0.05c0.02,0.03 0.04,0.07 0.05,0.1l0.03 0.06c0.02,0.03 0.04,0.06 0.05,0.09l0.04 0.06c0.01,0.03 0.03,0.06 0.05,0.09l0.03 0.06c0.02,0.03 0.04,0.06 0.06,0.09l0.04 0.06c0.02,0.03 0.04,0.06 0.06,0.09l0.03 0.05c0.02,0.03 0.04,0.06 0.06,0.09l0.04 0.06c0.02,0.03 0.04,0.06 0.07,0.09l0.03 0.05c0.02,0.03 0.05,0.06 0.07,0.09l0.04 0.04c0.02,0.04 0.05,0.07 0.07,0.1l0.03 0.04c0.03,0.03 0.05,0.06 0.08,0.09l0.03 0.04c0.03,0.03 0.06,0.06 0.09,0.09l0.03 0.04c0.03,0.03 0.06,0.06 0.08,0.09l0.03 0.04c0.03,0.03 0.07,0.06 0.1,0.09l0.02 0.03c0.03,0.03 0.07,0.06 0.1,0.09l0.03 0.03c0.03,0.03 0.06,0.06 0.09,0.09l0.03 0.03c0.03,0.03 0.07,0.06 0.1,0.09l0.03 0.03c0.04,0.03 0.07,0.06 0.1,0.08l0.03 0.03c0.04,0.03 0.07,0.06 0.1,0.08l0.04 0.03c0.03,0.03 0.07,0.06 0.1,0.08l0.03 0.02c0.04,0.03 0.08,0.06 0.12,0.09l0.02 0.02c0.04,0.02 0.08,0.05 0.12,0.08l0.02 0.02c0.04,0.02 0.08,0.05 0.12,0.08l0.02 0.01c0.05,0.03 0.09,0.06 0.13,0.08l0.02 0.01c0.04,0.03 0.08,0.06 0.13,0.08l0.02 0.02c0.05,0.02 0.09,0.05 0.13,0.07l0.02 0.01c0.04,0.02 0.09,0.05 0.13,0.07l0.02 0.01c0.05,0.03 0.09,0.05 0.14,0.07l0.02 0.01c0.04,0.03 0.09,0.05 0.14,0.07l0.02 0.01c0.04,0.02 0.09,0.04 0.14,0.06l0.01 0.01c0.05,0.02 0.1,0.04 0.15,0.06l0.02 0.01c0.04,0.02 0.09,0.04 0.14,0.05l0.02 0.01c0.05,0.02 0.1,0.04 0.15,0.06l0.01 0c0.06,0.02 0.11,0.04 0.16,0.05l0.01 0.01c0.05,0.01 0.1,0.03 0.16,0.05l0.01 0c0.05,0.02 0.11,0.03 0.16,0.05l0.01 0c0.17,0.04 0.34,0.08 0.51,0.12l0.01 0c0.05,0.01 0.11,0.02 0.17,0.03l0 0c0.06,0.01 0.12,0.02 0.18,0.03l0.01 0c0.05,0.01 0.11,0.01 0.17,0.02l0.01 0c0.05,0.01 0.11,0.02 0.17,0.02l0.01 0c0.06,0.01 0.12,0.01 0.17,0.02l0.01 0c0.06,0 0.12,0 0.18,0.01l0 0c0.06,0 0.12,0 0.18,0l0 0 0 0c0.05,0 0.09,0 0.13,0 3.91,0 7.1,-3.09 7.26,-6.96 1.35,0.24 2.72,0.57 4.22,0.83z"/>
 </g>
</svg>
